<?xml version="1.0" encoding="utf-8"?>
<!-- Generator: Adobe Illustrator 26.5.0, SVG Export Plug-In . SVG Version: 6.00 Build 0)  -->
<svg version="1.1" xmlns="http://www.w3.org/2000/svg" xmlns:xlink="http://www.w3.org/1999/xlink" x="0px" y="0px" width="127.3px"
	 height="20px" viewBox="0 0 127.3 20" style="enable-background:new 0 0 127.3 20;" xml:space="preserve">
<style type="text/css">
	.st0{fill:url(#SVGID_1_);}
	.st1{opacity:0.35;enable-background:new    ;}
	.st2{fill:#515151;}
	.st3{enable-background:new    ;}
	.st4{fill:#FFFFFF;}
</style>
<g id="Layer_1">
	<linearGradient id="SVGID_1_" gradientUnits="userSpaceOnUse" x1="63.6569" y1="20.117" x2="63.6569" y2="-2.806644e-13">
		<stop  offset="0.67" style="stop-color:#0376A7"/>
		<stop  offset="1" style="stop-color:#02688C"/>
	</linearGradient>
	<path class="st0" d="M127.3,3.6c-0.1-2-1.8-3.7-3.8-3.6H57.3H57H2.9C1.3,0,0,1.7,0,3.9v12.5c0.1,2.2,1.5,3.8,3.1,3.6H57h0.3h66.2
		c2.1,0,3.8-1.7,3.8-3.8V3.7C127.3,3.7,127.3,3.6,127.3,3.6z"/>
</g>
<g id="Layer_2">
	<g class="st1">
		<path class="st2" d="M4.7,10.7c0-1.3,0.4-2.3,1.1-3.1s1.6-1.1,2.7-1.1c0.7,0,1.4,0.2,2,0.5c0.6,0.3,1,0.8,1.3,1.5
			c0.3,0.6,0.5,1.3,0.5,2.1c0,0.8-0.2,1.5-0.5,2.1s-0.8,1.1-1.4,1.4s-1.2,0.5-1.9,0.5c-0.7,0-1.4-0.2-2-0.5c-0.6-0.4-1-0.8-1.3-1.5
			S4.7,11.4,4.7,10.7z M5.8,10.7c0,0.9,0.3,1.7,0.8,2.2c0.5,0.5,1.2,0.8,1.9,0.8c0.8,0,1.4-0.3,1.9-0.8c0.5-0.6,0.8-1.3,0.8-2.3
			c0-0.6-0.1-1.2-0.3-1.7c-0.2-0.5-0.5-0.8-1-1.1C9.5,7.6,9,7.4,8.5,7.4c-0.7,0-1.4,0.3-1.9,0.8C6.1,8.7,5.8,9.5,5.8,10.7z"/>
		<path class="st2" d="M13.5,16.7V8.8h0.9v0.7c0.2-0.3,0.4-0.5,0.7-0.7c0.3-0.1,0.6-0.2,1-0.2c0.5,0,0.9,0.1,1.3,0.4
			s0.7,0.6,0.8,1.1c0.2,0.5,0.3,1,0.3,1.5c0,0.6-0.1,1.1-0.3,1.6c-0.2,0.5-0.5,0.8-0.9,1.1c-0.4,0.2-0.8,0.4-1.3,0.4
			c-0.3,0-0.6-0.1-0.9-0.2c-0.3-0.1-0.5-0.3-0.6-0.5v2.8H13.5z M14.4,11.7c0,0.7,0.1,1.3,0.4,1.6s0.7,0.5,1.1,0.5
			c0.4,0,0.8-0.2,1.1-0.5c0.3-0.4,0.5-0.9,0.5-1.7c0-0.7-0.1-1.3-0.4-1.6c-0.3-0.4-0.7-0.5-1.1-0.5c-0.4,0-0.8,0.2-1.1,0.6
			C14.5,10.4,14.4,11,14.4,11.7z"/>
		<path class="st2" d="M23.5,12.7l1,0.1c-0.2,0.6-0.4,1-0.9,1.4s-1,0.5-1.6,0.5c-0.8,0-1.5-0.3-2-0.8c-0.5-0.5-0.7-1.2-0.7-2.2
			c0-1,0.2-1.7,0.7-2.2s1.1-0.8,1.9-0.8c0.8,0,1.4,0.3,1.9,0.8c0.5,0.5,0.7,1.2,0.7,2.2c0,0.1,0,0.1,0,0.3h-4.3
			c0,0.6,0.2,1.1,0.5,1.4c0.3,0.3,0.7,0.5,1.2,0.5c0.4,0,0.7-0.1,0.9-0.3S23.4,13.1,23.5,12.7z M20.3,11.1h3.2
			c0-0.5-0.2-0.8-0.4-1.1c-0.3-0.4-0.7-0.6-1.2-0.6c-0.4,0-0.8,0.1-1.1,0.4C20.5,10.3,20.4,10.6,20.3,11.1z"/>
		<path class="st2" d="M25.7,14.5V8.8h0.9v0.8c0.4-0.6,1-0.9,1.8-0.9c0.3,0,0.7,0.1,0.9,0.2C29.7,9,29.9,9.2,30,9.4
			c0.1,0.2,0.2,0.4,0.3,0.7c0,0.2,0.1,0.5,0.1,0.9v3.5h-1v-3.5c0-0.4,0-0.7-0.1-0.9s-0.2-0.4-0.4-0.5c-0.2-0.1-0.4-0.2-0.7-0.2
			c-0.4,0-0.8,0.1-1.1,0.4c-0.3,0.3-0.4,0.8-0.4,1.5v3.1H25.7z"/>
		<path class="st2" d="M34.9,7.8V6.7h1v1.1H34.9z M34.9,14.5V8.8h1v5.7H34.9z"/>
		<path class="st2" d="M37.3,14.5V8.8h0.9v0.8c0.4-0.6,1-0.9,1.8-0.9c0.3,0,0.7,0.1,0.9,0.2c0.3,0.1,0.5,0.3,0.6,0.5
			c0.1,0.2,0.2,0.4,0.3,0.7c0,0.2,0.1,0.5,0.1,0.9v3.5h-1v-3.5c0-0.4,0-0.7-0.1-0.9s-0.2-0.4-0.4-0.5c-0.2-0.1-0.4-0.2-0.7-0.2
			c-0.4,0-0.8,0.1-1.1,0.4c-0.3,0.3-0.4,0.8-0.4,1.5v3.1H37.3z"/>
		<path class="st2" d="M46.6,14.5V6.7h1.6l1.9,5.6c0.2,0.5,0.3,0.9,0.4,1.2c0.1-0.3,0.2-0.7,0.4-1.3l1.9-5.5h1.4v7.9h-1V8l-2.3,6.6
			h-0.9l-2.3-6.7v6.7H46.6z"/>
		<path class="st2" d="M54.9,14.5l3-7.9h1.1l3.2,7.9h-1.2l-0.9-2.4h-3.3l-0.9,2.4H54.9z M57.2,11.3h2.7l-0.8-2.2
			c-0.3-0.7-0.4-1.2-0.6-1.6c-0.1,0.5-0.2,1-0.4,1.5L57.2,11.3z"/>
		<path class="st2" d="M64.3,14.5V7.6h-2.6V6.7H68v0.9h-2.6v6.9H64.3z"/>
		<path class="st2" d="M69,14.5V6.7h1v6.9h3.9v0.9H69z"/>
		<path class="st2" d="M74.3,14.5l3-7.9h1.1l3.2,7.9h-1.2l-0.9-2.4h-3.3l-0.9,2.4H74.3z M76.6,11.3h2.7l-0.8-2.2
			c-0.3-0.7-0.4-1.2-0.6-1.6c-0.1,0.5-0.2,1-0.4,1.5L76.6,11.3z"/>
		<path class="st2" d="M82.5,14.5V6.7h3c0.6,0,1.1,0.1,1.4,0.2s0.6,0.4,0.9,0.7s0.3,0.7,0.3,1c0,0.3-0.1,0.7-0.3,1
			c-0.2,0.3-0.5,0.5-0.8,0.7c0.5,0.1,0.8,0.4,1.1,0.7c0.3,0.3,0.4,0.7,0.4,1.2c0,0.4-0.1,0.7-0.2,1c-0.2,0.3-0.3,0.6-0.6,0.7
			s-0.5,0.3-0.9,0.4s-0.8,0.1-1.3,0.1H82.5z M83.5,10h1.7c0.5,0,0.8,0,1-0.1c0.3-0.1,0.5-0.2,0.6-0.4C86.9,9.3,87,9.1,87,8.8
			c0-0.3-0.1-0.5-0.2-0.7c-0.1-0.2-0.3-0.3-0.5-0.4s-0.6-0.1-1.2-0.1h-1.6V10z M83.5,13.6h2c0.3,0,0.6,0,0.7,0
			c0.2,0,0.4-0.1,0.6-0.2c0.2-0.1,0.3-0.2,0.4-0.4c0.1-0.2,0.2-0.4,0.2-0.7c0-0.3-0.1-0.5-0.2-0.8s-0.4-0.4-0.6-0.5
			s-0.7-0.1-1.2-0.1h-1.8V13.6z"/>
		<path class="st2" d="M92.6,10.7c0-1.3,0.4-2.3,1.1-3.1c0.7-0.7,1.6-1.1,2.7-1.1c0.7,0,1.4,0.2,2,0.5c0.6,0.3,1,0.8,1.3,1.5
			c0.3,0.6,0.5,1.3,0.5,2.1c0,0.8-0.2,1.5-0.5,2.1s-0.8,1.1-1.4,1.4s-1.2,0.5-1.9,0.5c-0.7,0-1.4-0.2-2-0.5c-0.6-0.4-1-0.8-1.3-1.5
			S92.6,11.4,92.6,10.7z M93.7,10.7c0,0.9,0.3,1.7,0.8,2.2c0.5,0.5,1.2,0.8,1.9,0.8c0.8,0,1.4-0.3,1.9-0.8c0.5-0.6,0.8-1.3,0.8-2.3
			c0-0.6-0.1-1.2-0.3-1.7c-0.2-0.5-0.5-0.8-1-1.1c-0.4-0.3-0.9-0.4-1.4-0.4c-0.7,0-1.4,0.3-1.9,0.8C93.9,8.7,93.7,9.5,93.7,10.7z"/>
		<path class="st2" d="M101.3,14.5V8.8h0.9v0.8c0.4-0.6,1-0.9,1.8-0.9c0.3,0,0.7,0.1,0.9,0.2c0.3,0.1,0.5,0.3,0.6,0.5
			c0.1,0.2,0.2,0.4,0.3,0.7c0,0.2,0.1,0.5,0.1,0.9v3.5h-1v-3.5c0-0.4,0-0.7-0.1-0.9c-0.1-0.2-0.2-0.4-0.4-0.5s-0.4-0.2-0.7-0.2
			c-0.4,0-0.8,0.1-1.1,0.4c-0.3,0.3-0.4,0.8-0.4,1.5v3.1H101.3z"/>
		<path class="st2" d="M107.4,14.5V6.7h1v7.9H107.4z"/>
		<path class="st2" d="M109.9,7.8V6.7h1v1.1H109.9z M109.9,14.5V8.8h1v5.7H109.9z"/>
		<path class="st2" d="M112.3,14.5V8.8h0.9v0.8c0.4-0.6,1-0.9,1.8-0.9c0.3,0,0.7,0.1,0.9,0.2c0.3,0.1,0.5,0.3,0.6,0.5
			c0.1,0.2,0.2,0.4,0.3,0.7c0,0.2,0.1,0.5,0.1,0.9v3.5h-1v-3.5c0-0.4,0-0.7-0.1-0.9c-0.1-0.2-0.2-0.4-0.4-0.5s-0.4-0.2-0.7-0.2
			c-0.4,0-0.8,0.1-1.1,0.4c-0.3,0.3-0.4,0.8-0.4,1.5v3.1H112.3z"/>
		<path class="st2" d="M122.4,12.7l1,0.1c-0.2,0.6-0.4,1-0.9,1.4c-0.4,0.3-1,0.5-1.6,0.5c-0.8,0-1.5-0.3-2-0.8
			c-0.5-0.5-0.7-1.2-0.7-2.2c0-1,0.2-1.7,0.7-2.2s1.1-0.8,1.9-0.8c0.8,0,1.4,0.3,1.9,0.8c0.5,0.5,0.7,1.2,0.7,2.2c0,0.1,0,0.1,0,0.3
			h-4.3c0,0.6,0.2,1.1,0.5,1.4c0.3,0.3,0.7,0.5,1.2,0.5c0.4,0,0.7-0.1,0.9-0.3C122,13.4,122.2,13.1,122.4,12.7z M119.2,11.1h3.2
			c0-0.5-0.2-0.8-0.4-1.1c-0.3-0.4-0.7-0.6-1.2-0.6c-0.4,0-0.8,0.1-1.1,0.4C119.4,10.3,119.2,10.6,119.2,11.1z"/>
	</g>
</g>
<g id="Layer_2_copy">
	<g class="st3">
		<path class="st4" d="M4,9.9c0-1.3,0.4-2.3,1.1-3.1s1.6-1.1,2.7-1.1c0.7,0,1.4,0.2,2,0.5c0.6,0.3,1,0.8,1.3,1.5
			c0.3,0.6,0.5,1.3,0.5,2.1c0,0.8-0.2,1.5-0.5,2.1s-0.8,1.1-1.4,1.4s-1.2,0.5-1.9,0.5c-0.7,0-1.4-0.2-2-0.5c-0.6-0.4-1-0.8-1.3-1.5
			S4,10.6,4,9.9z M5.1,9.9c0,0.9,0.3,1.7,0.8,2.2c0.5,0.5,1.2,0.8,1.9,0.8c0.8,0,1.4-0.3,1.9-0.8c0.5-0.6,0.8-1.3,0.8-2.3
			c0-0.6-0.1-1.2-0.3-1.7C9.9,7.6,9.6,7.2,9.2,7C8.8,6.7,8.3,6.6,7.8,6.6c-0.7,0-1.4,0.3-1.9,0.8C5.4,7.9,5.1,8.7,5.1,9.9z"/>
		<path class="st4" d="M12.8,15.9V8h0.9v0.7c0.2-0.3,0.4-0.5,0.7-0.7c0.3-0.1,0.6-0.2,1-0.2c0.5,0,0.9,0.1,1.3,0.4s0.7,0.6,0.8,1.1
			c0.2,0.5,0.3,1,0.3,1.5c0,0.6-0.1,1.1-0.3,1.6c-0.2,0.5-0.5,0.8-0.9,1.1c-0.4,0.2-0.8,0.4-1.3,0.4c-0.3,0-0.6-0.1-0.9-0.2
			c-0.3-0.1-0.5-0.3-0.6-0.5v2.8H12.8z M13.7,10.9c0,0.7,0.1,1.3,0.4,1.6s0.7,0.5,1.1,0.5c0.4,0,0.8-0.2,1.1-0.5
			c0.3-0.4,0.5-0.9,0.5-1.7c0-0.7-0.1-1.3-0.4-1.6c-0.3-0.4-0.7-0.5-1.1-0.5c-0.4,0-0.8,0.2-1.1,0.6C13.8,9.6,13.7,10.1,13.7,10.9z"
			/>
		<path class="st4" d="M22.8,11.9l1,0.1c-0.2,0.6-0.4,1-0.9,1.4s-1,0.5-1.6,0.5c-0.8,0-1.5-0.3-2-0.8c-0.5-0.5-0.7-1.2-0.7-2.2
			c0-1,0.2-1.7,0.7-2.2s1.1-0.8,1.9-0.8c0.8,0,1.4,0.3,1.9,0.8c0.5,0.5,0.7,1.2,0.7,2.2c0,0.1,0,0.1,0,0.3h-4.3
			c0,0.6,0.2,1.1,0.5,1.4c0.3,0.3,0.7,0.5,1.2,0.5c0.4,0,0.7-0.1,0.9-0.3S22.7,12.3,22.8,11.9z M19.6,10.3h3.2
			c0-0.5-0.2-0.8-0.4-1.1c-0.3-0.4-0.7-0.6-1.2-0.6c-0.4,0-0.8,0.1-1.1,0.4C19.8,9.4,19.7,9.8,19.6,10.3z"/>
		<path class="st4" d="M25,13.7V8h0.9v0.8c0.4-0.6,1-0.9,1.8-0.9c0.3,0,0.7,0.1,0.9,0.2c0.3,0.1,0.5,0.3,0.6,0.5
			c0.1,0.2,0.2,0.4,0.3,0.7c0,0.2,0.1,0.5,0.1,0.9v3.5h-1v-3.5c0-0.4,0-0.7-0.1-0.9S28.4,9,28.2,8.9c-0.2-0.1-0.4-0.2-0.7-0.2
			c-0.4,0-0.8,0.1-1.1,0.4C26.1,9.4,26,9.9,26,10.6v3.1H25z"/>
		<path class="st4" d="M34.2,6.9V5.8h1v1.1H34.2z M34.2,13.7V8h1v5.7H34.2z"/>
		<path class="st4" d="M36.6,13.7V8h0.9v0.8c0.4-0.6,1-0.9,1.8-0.9c0.3,0,0.7,0.1,0.9,0.2c0.3,0.1,0.5,0.3,0.6,0.5
			c0.1,0.2,0.2,0.4,0.3,0.7c0,0.2,0.1,0.5,0.1,0.9v3.5h-1v-3.5c0-0.4,0-0.7-0.1-0.9S40,9,39.8,8.9c-0.2-0.1-0.4-0.2-0.7-0.2
			c-0.4,0-0.8,0.1-1.1,0.4c-0.3,0.3-0.4,0.8-0.4,1.5v3.1H36.6z"/>
		<path class="st4" d="M45.9,13.7V5.8h1.6l1.9,5.6c0.2,0.5,0.3,0.9,0.4,1.2c0.1-0.3,0.2-0.7,0.4-1.3L52,5.8h1.4v7.9h-1V7.1l-2.3,6.6
			h-0.9L46.9,7v6.7H45.9z"/>
		<path class="st4" d="M54.2,13.7l3-7.9h1.1l3.2,7.9h-1.2l-0.9-2.4h-3.3l-0.9,2.4H54.2z M56.5,10.5h2.7l-0.8-2.2
			c-0.3-0.7-0.4-1.2-0.6-1.6c-0.1,0.5-0.2,1-0.4,1.5L56.5,10.5z"/>
		<path class="st4" d="M63.6,13.7V6.8H61V5.8h6.2v0.9h-2.6v6.9H63.6z"/>
		<path class="st4" d="M68.3,13.7V5.8h1v6.9h3.9v0.9H68.3z"/>
		<path class="st4" d="M73.6,13.7l3-7.9h1.1l3.2,7.9h-1.2l-0.9-2.4h-3.3l-0.9,2.4H73.6z M75.9,10.5h2.7l-0.8-2.2
			c-0.3-0.7-0.4-1.2-0.6-1.6c-0.1,0.5-0.2,1-0.4,1.5L75.9,10.5z"/>
		<path class="st4" d="M81.7,13.7V5.8h3c0.6,0,1.1,0.1,1.4,0.2s0.6,0.4,0.9,0.7s0.3,0.7,0.3,1c0,0.3-0.1,0.7-0.3,1
			c-0.2,0.3-0.5,0.5-0.8,0.7c0.5,0.1,0.8,0.4,1.1,0.7c0.3,0.3,0.4,0.7,0.4,1.2c0,0.4-0.1,0.7-0.2,1c-0.2,0.3-0.3,0.6-0.6,0.7
			s-0.5,0.3-0.9,0.4s-0.8,0.1-1.3,0.1H81.7z M82.8,9.1h1.7c0.5,0,0.8,0,1-0.1c0.3-0.1,0.5-0.2,0.6-0.4c0.1-0.2,0.2-0.4,0.2-0.7
			c0-0.3-0.1-0.5-0.2-0.7c-0.1-0.2-0.3-0.3-0.5-0.4s-0.6-0.1-1.2-0.1h-1.6V9.1z M82.8,12.8h2c0.3,0,0.6,0,0.7,0
			c0.2,0,0.4-0.1,0.6-0.2c0.2-0.1,0.3-0.2,0.4-0.4c0.1-0.2,0.2-0.4,0.2-0.7c0-0.3-0.1-0.5-0.2-0.8s-0.4-0.4-0.6-0.5
			s-0.7-0.1-1.2-0.1h-1.8V12.8z"/>
		<path class="st4" d="M91.9,9.9c0-1.3,0.4-2.3,1.1-3.1c0.7-0.7,1.6-1.1,2.7-1.1c0.7,0,1.4,0.2,2,0.5c0.6,0.3,1,0.8,1.3,1.5
			c0.3,0.6,0.5,1.3,0.5,2.1c0,0.8-0.2,1.5-0.5,2.1s-0.8,1.1-1.4,1.4s-1.2,0.5-1.9,0.5c-0.7,0-1.4-0.2-2-0.5c-0.6-0.4-1-0.8-1.3-1.5
			S91.9,10.6,91.9,9.9z M92.9,9.9c0,0.9,0.3,1.7,0.8,2.2c0.5,0.5,1.2,0.8,1.9,0.8c0.8,0,1.4-0.3,1.9-0.8c0.5-0.6,0.8-1.3,0.8-2.3
			c0-0.6-0.1-1.2-0.3-1.7c-0.2-0.5-0.5-0.8-1-1.1c-0.4-0.3-0.9-0.4-1.4-0.4c-0.7,0-1.4,0.3-1.9,0.8C93.2,7.9,92.9,8.7,92.9,9.9z"/>
		<path class="st4" d="M100.6,13.7V8h0.9v0.8c0.4-0.6,1-0.9,1.8-0.9c0.3,0,0.7,0.1,0.9,0.2c0.3,0.1,0.5,0.3,0.6,0.5
			c0.1,0.2,0.2,0.4,0.3,0.7c0,0.2,0.1,0.5,0.1,0.9v3.5h-1v-3.5c0-0.4,0-0.7-0.1-0.9c-0.1-0.2-0.2-0.4-0.4-0.5s-0.4-0.2-0.7-0.2
			c-0.4,0-0.8,0.1-1.1,0.4c-0.3,0.3-0.4,0.8-0.4,1.5v3.1H100.6z"/>
		<path class="st4" d="M106.7,13.7V5.8h1v7.9H106.7z"/>
		<path class="st4" d="M109.2,6.9V5.8h1v1.1H109.2z M109.2,13.7V8h1v5.7H109.2z"/>
		<path class="st4" d="M111.6,13.7V8h0.9v0.8c0.4-0.6,1-0.9,1.8-0.9c0.3,0,0.7,0.1,0.9,0.2c0.3,0.1,0.5,0.3,0.6,0.5
			c0.1,0.2,0.2,0.4,0.3,0.7c0,0.2,0.1,0.5,0.1,0.9v3.5h-1v-3.5c0-0.4,0-0.7-0.1-0.9c-0.1-0.2-0.2-0.4-0.4-0.5s-0.4-0.2-0.7-0.2
			c-0.4,0-0.8,0.1-1.1,0.4c-0.3,0.3-0.4,0.8-0.4,1.5v3.1H111.6z"/>
		<path class="st4" d="M121.6,11.9l1,0.1c-0.2,0.6-0.4,1-0.9,1.4c-0.4,0.3-1,0.5-1.6,0.5c-0.8,0-1.5-0.3-2-0.8
			c-0.5-0.5-0.7-1.2-0.7-2.2c0-1,0.2-1.7,0.7-2.2s1.1-0.8,1.9-0.8c0.8,0,1.4,0.3,1.9,0.8c0.5,0.5,0.7,1.2,0.7,2.2c0,0.1,0,0.1,0,0.3
			h-4.3c0,0.6,0.2,1.1,0.5,1.4c0.3,0.3,0.7,0.5,1.2,0.5c0.4,0,0.7-0.1,0.9-0.3C121.3,12.6,121.5,12.3,121.6,11.9z M118.5,10.3h3.2
			c0-0.5-0.2-0.8-0.4-1.1c-0.3-0.4-0.7-0.6-1.2-0.6c-0.4,0-0.8,0.1-1.1,0.4C118.7,9.4,118.5,9.8,118.5,10.3z"/>
	</g>
</g>
</svg>
